<?xml version="1.0" encoding="UTF-8"?>
<!DOCTYPE svg PUBLIC "-//W3C//DTD SVG 1.1//EN" "http://www.w3.org/Graphics/SVG/1.1/DTD/svg11.dtd">
<!-- Creator: CorelDRAW 2019 (64-Bit) -->
<svg xmlns="http://www.w3.org/2000/svg" xml:space="preserve" width="6.59865in" height="6.59865in" version="1.1" style="shape-rendering:geometricPrecision; text-rendering:geometricPrecision; image-rendering:optimizeQuality; fill-rule:evenodd; clip-rule:evenodd"
viewBox="0 0 2559.76 2559.76"
 xmlns:xlink="http://www.w3.org/1999/xlink"
 xmlns:xodm="http://www.corel.com/coreldraw/odm/2003">
 <defs>
  <style type="text/css">
   <![CDATA[
    .fil0 {fill:#FEFEFE}
    .fil4 {fill:#00B3FF}
    .fil1 {fill:#2D1FA6}
    .fil2 {fill:#FF7700}
    .fil5 {fill:#FEFEFE;fill-rule:nonzero}
    .fil3 {fill:#2D1FA6;fill-rule:nonzero}
   ]]>
  </style>
 </defs>
 <g id="Layer_x0020_1">
  <metadata id="CorelCorpID_0Corel-Layer"/>
  <g id="_2755080537488">
   <path class="fil0" d="M1279.88 308.8c536.31,0 971.08,434.77 971.08,971.08 0,536.31 -434.77,971.08 -971.08,971.08 -536.31,0 -971.08,-434.77 -971.08,-971.08 0,-536.31 434.77,-971.08 971.08,-971.08z"/>
   <path class="fil1" d="M1279.88 0c706.86,0 1279.88,573.02 1279.88,1279.88 0,706.86 -573.02,1279.88 -1279.88,1279.88 -706.86,0 -1279.88,-573.02 -1279.88,-1279.88 0,-706.86 573.02,-1279.88 1279.88,-1279.88zm0 356c510.24,0 923.88,413.64 923.88,923.88 0,510.24 -413.64,923.88 -923.88,923.88 -510.24,0 -923.88,-413.64 -923.88,-923.88 0,-510.24 413.64,-923.88 923.88,-923.88z"/>
   <path class="fil2" d="M648.07 921.9l268.44 0 0 1030.54c0,0 -154.94,-46.84 -270.24,-198.18l1.8 -832.36z"/>
   <path class="fil2" d="M1908.3 921.9l-268.44 0 0 1030.54c0,0 154.94,-46.84 270.25,-198.18l-1.8 -832.36z"/>
   <path class="fil3" d="M737.56 1578.31l253.6 -18.76c15.29,63.22 45.86,109.46 92.32,139.17 46.46,29.71 109.11,44.45 187.95,44.45 83.33,0 146.28,-13.18 188.55,-39.54 42.27,-26.36 63.55,-57.19 63.55,-92.48 0,-22.78 -8.99,-42 -26.68,-58.08 -17.68,-15.86 -48.86,-29.71 -93.22,-41.33 -30.28,-8.04 -99.22,-21.89 -207.13,-42 -138.79,-25.91 -236.21,-57.63 -292.26,-95.38 -78.84,-52.94 -118.1,-117.5 -118.1,-193.68 0,-48.92 18.59,-94.94 55.45,-137.6 37.17,-42.66 90.52,-75.06 160.37,-97.39 69.84,-22.34 153.77,-33.5 252.69,-33.5 160.97,0 282.37,26.58 363.61,79.97 81.54,53.39 124.1,124.42 128.3,213.55l-260.79 6.7c-11.09,-49.59 -34.77,-85.11 -71.04,-106.78 -36.27,-21.67 -90.83,-32.61 -163.37,-32.61 -74.94,0 -133.69,11.62 -175.96,34.85 -27.28,14.97 -41.06,34.85 -41.06,59.87 0,22.78 12.89,42.22 38.67,58.3 32.67,20.78 112.11,42.22 238.31,64.56 126.2,22.11 219.42,45.35 279.67,69.03 60.56,23.9 107.91,56.29 142.09,97.61 34.17,41.33 51.26,92.26 51.26,152.8 0,54.95 -20.38,106.55 -61.45,154.58 -41.07,48.03 -98.92,83.77 -173.86,107 -74.94,23.45 -168.46,35.07 -280.28,35.07 -162.77,0 -287.76,-27.93 -375,-83.99 -87.23,-55.85 -139.09,-137.38 -156.17,-244.38z"/>
   <path class="fil4" d="M650.75 866.94l301.78 -301.78 526.98 0 430.59 303.58 -540.49 0 0 1028.74c0,0 133.33,135.12 365.74,46.84 0,0 -290.06,264.84 -686.43,154.94l0 -1231.87 -398.17 -0.46z"/>
   <path class="fil5" d="M270.53 1415.29l-1 -39.62 -146.87 3.72 -0.01 -0.53 146.1 -34.09 -0.86 -34.34 -147.6 -25.08 -0.01 -0.53 146.87 -3.71 -1.04 -41.21 -188.61 4.77 1.62 64.19 124.45 19.32 0.01 0.53 -123.3 26.38 1.64 64.98 188.61 -4.77zm-91.28 -257.65c-51.38,-6.53 -67.56,-11.25 -65.36,-28.55 2.26,-17.82 19.11,-18.34 70.49,-11.82 51.38,6.53 67.56,11.25 65.29,29.07 -2.2,17.3 -19.04,17.83 -70.42,11.3zm10.93 -85.98c-51.9,-6.59 -97.68,-8.95 -105.61,53.44 -7.36,57.93 29.39,70.59 88.89,78.15 59.51,7.56 98.25,4.5 105.61,-53.43 7.93,-62.39 -36.99,-71.56 -88.89,-78.16zm104.66 -32.9l12.12 -42.71 -146.92 -41.71 10.83 -38.13 -34.57 -9.82 -33.77 118.96 34.57 9.82 10.82 -38.13 146.92 41.71zm28.06 -95.33l16.28 -41.3 -74.97 -29.56 12.99 -32.94 74.97 29.56 16.28 -41.3 -175.51 -69.21 -16.29 41.3 65.63 25.88 -12.99 32.94 -65.63 -25.88 -16.29 41.3 175.51 69.21zm60.74 -138.9l55.84 -97.13 -31.15 -17.91 -33.72 58.64 -37.34 -21.47 30.29 -52.69 -31.16 -17.91 -30.29 52.69 -32.76 -18.83 32.27 -56.12 -31.16 -17.91 -54.4 94.61 163.56 94.04zm-27.65 -245.06l8.33 -10.6c10.94,-13.92 21.68,-12.2 32.9,-3.38 8.72,6.85 16.38,18.92 5.28,33.05l-8.49 10.8 -38.02 -29.87zm96.4 132.21l27.43 -34.91 -61.29 -48.16 10.45 -13.3c8.65,-11.01 16.83,-10.3 42.59,9.95 16.83,13.23 25.95,18.72 33.07,19.94l29.55 -37.61 -1.87 -1.47c-6,3.35 -9.72,2.11 -39.51,-20.29 -20.27,-15.26 -35.17,-24.95 -55.76,-5.17l-0.42 -0.33c8.79,-19.31 5.04,-36.36 -16.56,-53.34 -20.36,-16 -46.64,-20.19 -69.99,9.52l-46.04 58.59 148.34 116.57zm166.77 -182.83l34.91 -27.43 -94.37 -120.09 31.17 -24.49 -22.21 -28.26 -97.23 76.41 22.2 28.26 31.16 -24.49 94.37 120.09zm78.46 -61l94.32 -60.47 -19.4 -30.25 -56.95 36.51 -23.25 -36.26 51.16 -32.8 -19.39 -30.25 -51.16 32.8 -20.39 -31.81 54.5 -34.94 -19.4 -30.25 -91.87 58.9 101.83 158.83zm88.06 -231.27l12.28 -5.55c16.13,-7.29 24.87,-0.8 30.74,12.2 4.57,10.11 5.79,24.35 -10.59,31.76l-12.52 5.66 -19.92 -44.07zm24.42 161.79l40.45 -18.29 -32.11 -71.03 15.41 -6.97c12.76,-5.77 19.68,-1.35 33.17,28.5 8.82,19.5 14.37,28.59 20.12,32.96l43.58 -19.7 -0.98 -2.16c-6.87,0.2 -9.59,-2.62 -25.67,-36.25 -10.93,-22.9 -19.67,-38.38 -47.06,-30.34l-0.22 -0.48c16.71,-13.07 21.27,-29.92 9.95,-54.96 -10.66,-23.59 -32.04,-39.45 -66.47,-23.89l-67.9 30.69 77.71 171.92zm139.4 -59.92l107.78 -30.6 -9.81 -34.57 -65.08 18.48 -11.76 -41.43 58.46 -16.6 -9.82 -34.57 -58.46 16.6 -10.32 -36.35 62.28 -17.68 -9.82 -34.57 -104.98 29.81 51.53 181.49zm114.08 -92.33l1.53 12.06c4.96,39.05 35.82,44.99 67.8,40.93 40.37,-5.13 61.79,-25.17 56.4,-67.63 -8.39,-66.06 -86.37,-36.17 -91.33,-75.23 -1.73,-13.63 3.99,-21.02 15,-22.42 6.55,-0.83 11.01,0.73 14.2,4.86 3.15,3.86 5.03,10.28 6.17,19.19l42.47 -5.4 -0.57 -4.46c-3.66,-28.83 -22.22,-49.12 -66.26,-43.52 -45.35,5.76 -58.14,32.96 -54.35,62.85 8.9,69.99 86.51,37.22 91.64,77.59 1.37,10.74 -1.63,22.84 -17.09,24.81 -15.2,1.93 -20.5,-8.32 -22.3,-22.47l-0.83 -6.55 -42.47 5.4zm233.95 -31.36l-32.23 -0.81 17.71 -83.6 0.53 0.01 13.99 84.41zm-92.91 67.96l45.97 1.16 7.51 -35.76 45.17 1.14 5.96 36.1 45.96 1.16 -42.25 -189.8 -55.48 -1.4 -52.84 187.39zm233.42 11.87l105.82 24.42 8.08 -35.01 -62.57 -14.44 34.35 -148.82 -43.25 -9.98 -42.43 183.83zm119.66 28.93l42.7 12.12 51.53 -181.49 -42.7 -12.12 -51.53 181.49zm147.07 -48.97c21.33,-47.2 30.6,-61.27 46.49,-54.09 16.37,7.4 11.92,23.66 -9.41,70.85 -21.33,47.2 -30.6,61.27 -46.97,53.87 -15.89,-7.18 -11.44,-23.44 9.89,-70.63zm78.98 35.7c21.55,-47.68 37.25,-90.74 -20.06,-116.65 -53.21,-24.05 -76.11,7.36 -100.82,62.01 -24.71,54.66 -33.16,92.59 20.05,116.65 57.31,25.91 79.27,-14.33 100.82,-62.01zm-17.66 96.01l33.37 21.39 70.16 -109.45 0.45 0.29 -37.47 130.41 42.27 27.1 101.82 -158.83 -34.7 -22.25 -66.17 103.21 -0.45 -0.29 35.47 -122.89 -42.93 -27.52 -101.82 158.83zm164.1 38.67l-7.96 9.19c-25.78,29.76 -9.61,56.7 14.75,77.81 30.76,26.64 59.98,29.23 88.01,-3.12 43.6,-50.33 -30.69,-88.46 -4.92,-118.22 9,-10.39 18.31,-11.05 26.71,-3.79 4.99,4.33 6.8,8.69 5.86,13.81 -0.77,4.93 -4.3,10.61 -10.18,17.4l32.35 28.03 2.94 -3.4c19.03,-21.97 21.76,-49.33 -11.8,-78.39 -34.55,-29.93 -63.34,-21.31 -83.07,1.46 -46.19,53.33 30,89.26 3.36,120.02 -7.1,8.19 -18.1,14.03 -29.89,3.83 -11.58,-10.03 -7.49,-20.82 1.86,-31.6l4.32 -4.99 -32.35 -28.03zm160.64 152.44l-9.56 7.51c-30.96,24.33 -20.2,53.84 -0.28,79.19 25.14,31.99 53.34,40.08 87,13.63 52.36,-41.14 -13.35,-92.68 17.61,-117.01 10.81,-8.49 20.08,-7.38 26.94,1.35 4.08,5.2 5.03,9.83 3.13,14.68 -1.69,4.69 -6.23,9.6 -13.3,15.15l26.45 33.66 3.53 -2.78c22.85,-17.96 30.72,-44.3 3.29,-79.21 -28.25,-35.94 -58.15,-32.94 -81.84,-14.33 -55.47,43.59 12.52,93.33 -19.47,118.48 -8.52,6.69 -20.44,10.34 -30.07,-1.91 -9.47,-12.05 -3.4,-21.86 7.82,-30.68l5.19 -4.08 -26.45 -33.66zm210.78 198.34l6.87 -3.95c38.49,-22.13 42.48,-49.11 22.99,-83.01 -31.35,-54.52 -74.59,-32.7 -116.51,-8.6 -49.25,28.32 -83.89,53.42 -55.58,102.67 27.4,47.64 59.4,42.35 94.68,22.07l5.73 -3.29 -21.34 -37.11c-25.56,14.39 -42.75,22.14 -50.91,7.93 -9.22,-16.03 2.46,-24.88 51.02,-52.8 42.83,-24.63 58.29,-31.68 67.11,-16.34 7.38,12.83 -1.58,21.63 -25.4,35.33l21.34 37.11zm-99.23 80.25l16.28 41.3 74.97 -29.57 12.99 32.94 -74.97 29.57 16.28 41.3 175.51 -69.21 -16.29 -41.3 -65.63 25.88 -12.99 -32.94 65.63 -25.88 -16.29 -41.3 -175.51 69.21zm153.75 161.81c50.46,-11.65 67.28,-12.82 71.2,4.18 4.04,17.5 -11.58,23.82 -62.05,35.47 -50.46,11.65 -67.28,12.82 -71.32,-4.69 -3.92,-17 11.7,-23.32 62.17,-34.96zm19.49 84.45c50.98,-11.77 94.75,-25.4 80.61,-86.67 -13.13,-56.9 -51.99,-56.07 -110.44,-42.58 -58.45,13.49 -93.74,29.77 -80.61,86.67 14.14,61.28 59.46,54.35 110.44,42.58zm7.04 79.14c51.64,-3.93 68.44,-2.56 69.76,14.83 1.36,17.91 -15.04,21.81 -66.68,25.74 -51.65,3.93 -68.44,2.56 -69.81,-15.36 -1.32,-17.39 15.08,-21.29 66.72,-25.21zm6.57 86.42c52.17,-3.97 97.49,-10.86 92.72,-73.57 -4.43,-58.23 -42.97,-63.25 -102.78,-58.7 -59.81,4.55 -97.15,15.34 -92.72,73.56 4.77,62.71 50.61,62.67 102.78,58.7zm-95.46 30.61l-8.24 108.29 35.83 2.72 4.87 -64.03 152.29 11.58 3.36 -44.26 -188.12 -14.31z"/>
   <path class="fil5" d="M273.81 1834.01l-10.26 6.51c-33.24,21.1 -25.5,51.55 -8.22,78.76 21.81,34.36 49.05,45.23 85.19,22.29 56.22,-35.68 -3.98,-93.55 29.26,-114.65 11.6,-7.36 20.72,-5.32 26.67,4.05 3.54,5.58 4.02,10.28 1.64,14.92 -2.15,4.49 -7.16,8.93 -14.75,13.74l22.94 36.14 3.79 -2.41c24.54,-15.58 35.01,-41 11.22,-78.48 -24.5,-38.6 -54.55,-38.61 -79.99,-22.47 -59.56,37.81 3.1,94.12 -31.26,115.93 -9.15,5.81 -21.37,8.24 -29.72,-4.92 -8.22,-12.94 -1.19,-22.09 10.86,-29.74l5.58 -3.54 -22.94 -36.14zm44.17 171.64l72.81 85.16 27.31 -23.35 -43.96 -51.42 32.74 -27.99 39.49 46.19 27.32 -23.35 -39.5 -46.19 28.72 -24.55 42.07 49.21 27.31 -23.35 -70.91 -82.95 -143.4 122.61zm241.52 32.23l9.72 9.33c12.77,12.26 9.99,22.79 0.11,33.08 -7.68,8 -20.45,14.43 -33.41,1.99l-9.91 -9.52 33.49 -34.88zm-141.1 82.85l32.02 30.75 53.99 -56.23 12.2 11.72c10.1,9.7 8.58,17.76 -14.11,41.4 -14.83,15.44 -21.2,23.98 -23.11,30.93l34.5 33.13 1.64 -1.72c-2.74,-6.3 -1.13,-9.88 24.1,-37.3 17.19,-18.66 28.31,-32.54 10.66,-54.97l0.37 -0.38c18.35,10.66 35.68,8.62 54.72,-11.2 17.93,-18.68 24.7,-44.42 -2.56,-70.59l-53.75 -51.61 -130.67 136.08zm152.24 130.15l45.78 33.2 145.42 -127.6 -38.5 -27.92 -104.03 104.73 -0.43 -0.31 67.45 -131.26 -38.5 -27.93 -77.18 177.09zm111.45 74.89l100.09 50.34 16.15 -32.1 -60.43 -30.4 19.35 -38.48 54.29 27.31 16.15 -32.1 -54.29 -27.31 16.98 -33.75 57.84 29.09 16.15 -32.11 -97.49 -49.04 -84.78 168.54zm208.69 91.95l42.06 14.2 48.85 -144.71 37.55 12.67 11.49 -34.05 -117.17 -39.55 -11.49 34.05 37.55 12.68 -48.85 144.71zm168.77 -51.83c9.53,-50.91 15.19,-66.78 32.33,-63.57 17.66,3.31 17.19,20.15 7.67,71.06 -9.53,50.91 -15.19,66.78 -32.85,63.48 -17.14,-3.21 -16.68,-20.05 -7.15,-70.96zm85.19 15.94c9.62,-51.43 14.65,-97 -47.16,-108.56 -57.4,-10.74 -72.19,25.2 -83.22,84.16 -11.03,58.96 -10.24,97.82 47.16,108.56 61.82,11.57 73.6,-32.74 83.23,-84.16zm74.54 98.81l111.97 3.74 1.2 -35.91 -67.61 -2.26 1.44 -43.05 60.74 2.03 1.2 -35.91 -60.74 -2.03 1.26 -37.76 64.7 2.16 1.2 -35.91 -109.07 -3.65 -6.31 188.56zm152.7 -1.11l39.35 -4.68 -15.36 -129.1 0.53 -0.06 53.93 124.51 49.86 -5.93 -22.29 -187.35 -40.93 4.87 14.49 121.74 -0.53 0.06 -50.69 -117.44 -50.64 6.03 22.29 187.35zm175.37 -26.12l104.62 -29.14 -9.64 -34.62 -61.86 17.23 -40.98 -147.13 -42.76 11.91 50.63 181.75zm137.87 -40.64l41.24 -16.41 -69.76 -175.29 -41.24 16.41 69.76 175.29zm138.11 -206.86c-9.51,-19.17 -29.24,-53.63 -80.61,-28.16 -56.34,27.93 -42.29,65.79 -14.83,121.19 26.18,52.79 48.89,80.76 91.27,59.75 15.39,-7.63 28.19,-19.28 26.83,-37.49l0.47 -0.24 8.93 15.63 27.23 -13.5 -44.96 -90.67 -55.63 27.58 13.15 26.52 18.7 -9.28 2.7 5.45c11.5,23.2 12.87,37.86 -0.62,44.55 -15.86,7.86 -25.62,-5.87 -48.51,-52.04 -22.3,-44.98 -28.62,-62.49 -12.29,-70.59 14.68,-7.28 24.43,9.42 29.83,20.3l38.35 -19.01zm96.97 94.35l36.21 -25.68 -46.63 -65.73 28.88 -20.49 46.63 65.73 36.21 -25.69 -109.16 -153.88 -36.21 25.69 40.82 57.54 -28.88 20.49 -40.82 -57.55 -36.21 25.69 109.16 153.88zm159.06 -120.7l32.01 -30.76 -105.82 -110.13 28.58 -27.46 -24.9 -25.91 -89.17 85.68 24.9 25.91 28.57 -27.46 105.83 110.12zm85.54 -84.12l73.53 -84.53 -27.11 -23.58 -44.4 51.04 -32.5 -28.27 39.89 -45.86 -27.11 -23.58 -39.89 45.86 -28.51 -24.8 42.49 -48.85 -27.11 -23.59 -71.62 82.34 142.35 123.82zm97.23 -117.83l21.37 -33.38 -109.49 -70.1 0.29 -0.45 130.43 37.39 27.07 -42.29 -158.88 -101.73 -22.23 34.71 103.25 66.11 -0.29 0.44 -122.92 -35.41 -27.5 42.95 158.89 101.73z"/>
   <polygon class="fil0" points="2345.99,1539.21 2363.81,1594.42 2421.83,1594.31 2374.83,1628.33 2392.87,1683.47 2345.99,1649.28 2299.11,1683.47 2317.15,1628.33 2270.14,1594.31 2328.17,1594.42 "/>
   <polygon class="fil0" points="214.84,1539.21 232.66,1594.42 290.68,1594.31 243.67,1628.33 261.72,1683.47 214.84,1649.28 167.96,1683.47 186,1628.33 138.99,1594.31 197.01,1594.42 "/>
  </g>
 </g>
</svg>
